<?xml version="1.0" encoding="UTF-8" standalone="no"?>
<svg
   viewBox="0 0 64 64"
   version="1.1"
   id="svg334"
   sodipodi:docname="Extension.svg"
   inkscape:version="1.3.1 (91b66b0783, 2023-11-16)"
   xml:space="preserve"
   inkscape:export-filename="Extension.png"
   inkscape:export-xdpi="1500"
   inkscape:export-ydpi="1500"
   xmlns:inkscape="http://www.inkscape.org/namespaces/inkscape"
   xmlns:sodipodi="http://sodipodi.sourceforge.net/DTD/sodipodi-0.dtd"
   xmlns:xlink="http://www.w3.org/1999/xlink"
   xmlns="http://www.w3.org/2000/svg"
   xmlns:svg="http://www.w3.org/2000/svg"><defs
     id="defs338"><radialGradient
       inkscape:collect="always"
       xlink:href="#linearGradient1200-9"
       id="radialGradient1"
       cx="21.456154"
       cy="78.368561"
       fx="21.456154"
       fy="78.368561"
       r="32"
       gradientUnits="userSpaceOnUse"
       gradientTransform="matrix(0,-1.732455,1.6108918,1.1567074e-6,-94.133103,92.61029)" /><linearGradient
       inkscape:collect="always"
       id="linearGradient1200-9"><stop
         style="stop-color:#ca1428;stop-opacity:1;"
         offset="0"
         id="stop1198-1" /><stop
         style="stop-color:#9b1526;stop-opacity:1;"
         offset="1"
         id="stop1196-2" /></linearGradient></defs><sodipodi:namedview
     id="namedview336"
     pagecolor="#ffffff"
     bordercolor="#666666"
     borderopacity="1.0"
     inkscape:showpageshadow="2"
     inkscape:pageopacity="0.0"
     inkscape:pagecheckerboard="0"
     inkscape:deskcolor="#d1d1d1"
     showgrid="false"
     showguides="true"
     inkscape:zoom="2.6074563"
     inkscape:cx="16.682926"
     inkscape:cy="91.85197"
     inkscape:window-width="1440"
     inkscape:window-height="831"
     inkscape:window-x="0"
     inkscape:window-y="0"
     inkscape:window-maximized="1"
     inkscape:current-layer="svg334" /><path
     fill="#FF8700"
     d="M 0,0 H 64 V 64 H 0 Z"
     id="path330-7"
     style="fill:url(#radialGradient1);fill-opacity:1" /><path
     id="path1"
     style="color:#000000;fill:#ffffff;stroke-linecap:round;stroke-linejoin:round;-inkscape-stroke:none"
     d="M 12.623047 10.623047 A 2 2 0 0 0 10.623047 12.623047 A 2 2 0 0 0 12.623047 14.623047 L 42.550781 14.623047 L 44.550781 10.623047 L 12.623047 10.623047 z " /><path
     id="path2"
     style="color:#000000;fill:#ffffff;stroke-linecap:round;stroke-linejoin:round;-inkscape-stroke:none"
     d="M 12.623047 20.310547 A 2 2 0 0 0 10.623047 22.310547 A 2 2 0 0 0 12.623047 24.310547 L 23.173828 24.310547 L 25.173828 20.310547 L 12.623047 20.310547 z " /><path
     id="path3"
     style="color:#000000;fill:#ffffff;stroke-linecap:round;stroke-linejoin:round;-inkscape-stroke:none"
     d="M 50.515625 30 L 48.515625 34 L 51.376953 34 A 2 2 0 0 0 53.376953 32 A 2 2 0 0 0 51.376953 30 L 50.515625 30 z " /><path
     id="path4"
     style="color:#000000;fill:#ffffff;stroke-linecap:round;stroke-linejoin:round;-inkscape-stroke:none"
     d="M 31.138672 39.6875 L 29.138672 43.6875 L 51.376953 43.6875 A 2 2 0 0 0 53.376953 41.6875 A 2 2 0 0 0 51.376953 39.6875 L 31.138672 39.6875 z M 11.125 40.400391 A 2 2 0 0 0 10.623047 41.6875 A 2 2 0 0 0 12.623047 43.6875 L 14.410156 43.6875 L 11.125 40.400391 z " /><path
     style="color:#000000;fill:#ffffff;stroke-linecap:round;stroke-linejoin:round;-inkscape-stroke:none"
     d="m 12.623047,49.376953 a 2,2 0 0 0 -2,2 2,2 0 0 0 2,2 h 38.753906 a 2,2 0 0 0 2,-2 2,2 0 0 0 -2,-2 z"
     id="path5" /><path
     style="color:#000000;fill:#ffffff;stroke-linecap:round;stroke-linejoin:round;-inkscape-stroke:none"
     d="M 52.71875,9.9394531 A 3,3 0 0 0 48.693359,11.28125 l -7.826172,15.654297 -6.746093,-6.746094 a 3.0003,3.0003 0 0 0 -4.804688,0.78125 l -7.826172,15.652344 -6.746093,-6.744141 a 3,3 0 0 0 -4.242188,0 3,3 0 0 0 0,4.242188 l 9.6875,9.689453 a 3.0003,3.0003 0 0 0 4.804688,-0.78125 l 7.828125,-15.652344 6.74414,6.744141 a 3.0003,3.0003 0 0 0 4.804688,-0.779297 L 54.060547,13.964844 A 3,3 0 0 0 52.71875,9.9394531 Z"
     id="path6" /></svg>
