<?xml version="1.0" encoding="UTF-8" standalone="no"?>
<svg
   viewBox="0 0 64 64"
   version="1.1"
   id="svg334"
   sodipodi:docname="Extension.svg"
   inkscape:version="1.3 (0e150ed6c4, 2023-07-21)"
   xml:space="preserve"
   inkscape:export-filename="Extension.png"
   inkscape:export-xdpi="1500"
   inkscape:export-ydpi="1500"
   xmlns:inkscape="http://www.inkscape.org/namespaces/inkscape"
   xmlns:sodipodi="http://sodipodi.sourceforge.net/DTD/sodipodi-0.dtd"
   xmlns:xlink="http://www.w3.org/1999/xlink"
   xmlns="http://www.w3.org/2000/svg"
   xmlns:svg="http://www.w3.org/2000/svg"><defs
     id="defs338"><radialGradient
       inkscape:collect="always"
       xlink:href="#linearGradient1200-9"
       id="radialGradient1"
       cx="21.456154"
       cy="78.368561"
       fx="21.456154"
       fy="78.368561"
       r="32"
       gradientUnits="userSpaceOnUse"
       gradientTransform="matrix(0,-1.732455,1.6108918,1.1567074e-6,-94.133103,92.61029)" /><linearGradient
       inkscape:collect="always"
       id="linearGradient1200-9"><stop
         style="stop-color:#ca1428;stop-opacity:1;"
         offset="0"
         id="stop1198-1" /><stop
         style="stop-color:#9b1526;stop-opacity:1;"
         offset="1"
         id="stop1196-2" /></linearGradient></defs><sodipodi:namedview
     id="namedview336"
     pagecolor="#ffffff"
     bordercolor="#666666"
     borderopacity="1.0"
     inkscape:showpageshadow="2"
     inkscape:pageopacity="0.0"
     inkscape:pagecheckerboard="0"
     inkscape:deskcolor="#d1d1d1"
     showgrid="false"
     showguides="true"
     inkscape:zoom="3.6875001"
     inkscape:cx="32.135592"
     inkscape:cy="29.423728"
     inkscape:window-width="1440"
     inkscape:window-height="831"
     inkscape:window-x="0"
     inkscape:window-y="0"
     inkscape:window-maximized="1"
     inkscape:current-layer="svg334" /><path
     fill="#FF8700"
     d="M 0,0 H 64 V 64 H 0 Z"
     id="path330-7"
     style="fill:url(#radialGradient1);fill-opacity:1" /><path
     id="rect355"
     style="color:#000000;fill:#ffffff;stroke-linecap:round;stroke-linejoin:round;-inkscape-stroke:none;paint-order:fill markers stroke"
     d="M 18.849609 10.623047 C 14.326678 10.623047 10.623047 14.326678 10.623047 18.849609 L 10.623047 21.941406 A 2 2 0 0 0 12.623047 23.941406 A 2 2 0 0 0 14.623047 21.941406 L 14.623047 18.849609 C 14.623047 16.473393 16.473393 14.623047 18.849609 14.623047 L 21.941406 14.623047 A 2 2 0 0 0 23.941406 12.623047 A 2 2 0 0 0 21.941406 10.623047 L 18.849609 10.623047 z M 42.058594 10.623047 A 2 2 0 0 0 40.058594 12.623047 A 2 2 0 0 0 42.058594 14.623047 L 45.150391 14.623047 C 47.526607 14.623047 49.376953 16.473393 49.376953 18.849609 L 49.376953 21.941406 A 2 2 0 0 0 51.376953 23.941406 A 2 2 0 0 0 53.376953 21.941406 L 53.376953 18.849609 C 53.376953 14.326678 49.673322 10.623047 45.150391 10.623047 L 42.058594 10.623047 z M 30.228516 19.498047 C 24.337391 19.498047 19.498047 24.337391 19.498047 30.228516 C 19.498047 36.119641 24.337391 40.958984 30.228516 40.958984 C 32.091838 40.958984 33.849784 40.473418 35.382812 39.625 L 39.380859 43.623047 A 3 3 0 0 0 43.623047 43.623047 A 3 3 0 0 0 43.623047 39.380859 L 39.625 35.382812 C 40.473418 33.849784 40.958984 32.091838 40.958984 30.228516 C 40.958984 24.337391 36.119641 19.498047 30.228516 19.498047 z M 30.228516 25.498047 C 32.877009 25.498047 34.958984 27.580022 34.958984 30.228516 C 34.958984 32.877009 32.877009 34.958984 30.228516 34.958984 C 27.580022 34.958984 25.498047 32.877009 25.498047 30.228516 C 25.498047 27.580022 27.580022 25.498047 30.228516 25.498047 z M 12.623047 40.058594 A 2 2 0 0 0 10.623047 42.058594 L 10.623047 45.150391 C 10.623047 49.673322 14.326678 53.376953 18.849609 53.376953 L 21.941406 53.376953 A 2 2 0 0 0 23.941406 51.376953 A 2 2 0 0 0 21.941406 49.376953 L 18.849609 49.376953 C 16.473393 49.376953 14.623047 47.526607 14.623047 45.150391 L 14.623047 42.058594 A 2 2 0 0 0 12.623047 40.058594 z M 51.376953 40.058594 A 2 2 0 0 0 49.376953 42.058594 L 49.376953 45.150391 C 49.376953 47.526607 47.526607 49.376953 45.150391 49.376953 L 42.058594 49.376953 A 2 2 0 0 0 40.058594 51.376953 A 2 2 0 0 0 42.058594 53.376953 L 45.150391 53.376953 C 49.673322 53.376953 53.376953 49.673322 53.376953 45.150391 L 53.376953 42.058594 A 2 2 0 0 0 51.376953 40.058594 z " /></svg>
